<?xml version="1.0" standalone="no"?><!DOCTYPE svg PUBLIC "-//W3C//DTD SVG 1.1//EN" "http://www.w3.org/Graphics/SVG/1.1/DTD/svg11.dtd"><svg t="1681113454995" class="icon" viewBox="0 0 1024 1024" version="1.1" xmlns="http://www.w3.org/2000/svg" p-id="17092" xmlns:xlink="http://www.w3.org/1999/xlink" width="200" height="200"><path d="M82.028573 512a430.239685 385.171325 0 1 0 860.47937 0 430.239685 385.171325 0 1 0-860.47937 0Z" fill="#9AD14B" p-id="17093"></path><path d="M384.983954 512a142.16443 127.284304 90 1 0 254.568608 0 142.16443 127.284304 90 1 0-254.568608 0Z" fill="#D1EF9C" p-id="17094"></path><path d="M848.73131 679.749276c-2.78292 0-5.673349-0.749484-8.243301-2.248452-7.814293-4.49588-10.490729-14.558625-5.88734-22.373942 26.013854-44.640376 39.18102-92.813157 39.181019-143.127906 0-74.294143-30.188235-146.553826-84.998864-203.504375-54.596637-56.737581-130.281217-95.061609-212.925144-108.014783-8.885277-1.39146-15.094117-9.741245-13.702657-18.73403 1.39146-8.885277 9.741245-15.094117 18.734029-13.702657 89.708737 14.130641 171.92468 55.880589 231.445183 117.757051 60.69797 63.052906 94.098133 143.449406 94.098133 226.199818 0 55.452605-15.094117 110.583711-43.570417 159.613483-2.997936 5.245365-8.457293 8.135793-14.130641 8.135793zM514.515686 619.265298c-50.313725 0-91.207705-47.638313-91.207704-106.08783 0-13.167165 2.03446-26.120339 6.102356-38.324028 2.890428-8.563777 12.097205-13.167165 20.660982-10.384245 8.563777 2.890428 13.167165 12.097205 10.384245 20.660982-2.996912 8.885277-4.49588 18.306046-4.49588 28.047291 0 40.464972 26.227846 73.330667 58.450541 73.330667 8.992785 0 16.379094 7.279825 16.379094 16.379094-0.001024 8.991761-7.280849 16.37807-16.273634 16.378069z" fill="#FFFFFF" p-id="17095"></path><path d="M512.268258 913.550418c-118.934519 0-230.90969-41.535956-315.15907-117.007567C112.4308 720.643256 65.649479 619.586798 65.649479 512s46.674836-208.643256 131.459709-284.542851C281.357544 151.985538 393.333739 110.449582 512.268258 110.449582s230.90969 41.535956 315.15907 117.007567c84.784872 75.899595 131.459709 176.956053 131.459709 284.542851s-46.674836 208.643256-131.459709 284.542851c-84.24938 75.471611-196.224551 117.007567-315.15907 117.007567z m0-770.342649c-228.234278 0-413.860592 165.501848-413.860592 368.792231s185.627338 368.792231 413.860592 368.792231 413.860592-165.501848 413.860592-368.792231-185.627338-368.792231-413.860592-368.792231z" fill="#333333" p-id="17096"></path><path d="M513.338218 354.633945c79.218008 0 143.663398 71.082215 143.663398 158.543523S592.556226 671.720991 513.338218 671.720991s-143.55589-71.189723-143.55589-158.650007 64.44539-158.437039 143.55589-158.437039z m0 284.222375c61.125954 0 110.905211-56.416081 110.905211-125.785336S574.465196 387.284624 513.338218 387.284624s-110.905211 56.416081-110.90521 125.785336S452.212264 638.85632 513.338218 638.85632zM511.946758 730.170509h-0.107508c-8.992785 0-16.379094-7.386309-16.379094-16.379094s7.386309-16.379094 16.379094-16.379093h0.427984c8.992785 0 16.379094 7.386309 16.379094 16.379093s-7.386309 16.379094-16.379094 16.379094h-0.320476z m53.633161-24.407378c-3.746396-8.243301-0.107508-17.984546 8.029309-21.730943 8.243301-3.746396 17.984546-0.106484 21.730942 8.029309 3.746396 8.243301 0.213992 17.984546-8.029309 21.730942-2.248452 0.963476-4.49588 1.498968-6.850817 1.498968a16.383189 16.383189 0 0 1-14.880125-9.528276z m-128.675764 7.814292c-8.243301-3.746396-11.775705-13.488665-8.029309-21.730942 3.746396-8.243301 13.488665-11.775705 21.730942-8.029309 8.243301 3.746396 11.775705 13.488665 8.029309 21.730943a16.380117 16.380117 0 0 1-14.880126 9.527253c-2.354936 0.001024-4.709872-0.42696-6.850816-1.497945z m188.838242-43.890892c-6.636825-6.208841-6.958325-16.485578-0.855968-23.123426 6.208841-6.636825 16.485578-6.958325 23.123426-0.855968 6.636825 6.208841 6.958325 16.485578 0.855968 23.123426-3.211928 3.42592-7.600301 5.245365-11.989697 5.245364-3.961412 0-7.921801-1.39146-11.133729-4.389396z m-250.393204-1.177468c-6.208841-6.636825-5.780857-17.02107 0.855968-23.123426 6.636825-6.208841 17.02107-5.780857 23.123426 0.855968 6.208841 6.636825 5.780857 17.02107-0.855968 23.123426a16.455885 16.455885 0 0 1-11.133729 4.389397c-4.389396 0-8.777769-1.71296-11.989697-5.245365z m293.106628-54.595613c-8.349785-3.532404-12.203689-13.167165-8.671285-21.410466 3.532404-8.349785 13.167165-12.203689 21.51695-8.671285 8.349785 3.532404 12.203689 13.167165 8.671285 21.410466a16.398547 16.398547 0 0 1-15.094117 9.956261c-2.13992-0.001024-4.388373-0.3215-6.422833-1.284976z m-334.000608-9.100293c-3.532404-8.349785 0.427984-17.878062 8.777769-21.410466 8.349785-3.532404 17.878062 0.427984 21.410466 8.777769 3.532404 8.349785-0.427984 17.984546-8.777769 21.410466a16.661686 16.661686 0 0 1-6.316349 1.284976c-6.315325 0.001024-12.417681-3.746396-15.094117-10.062745z m355.625066-57.700034c-8.992785-0.749484-15.736094-8.563777-14.987633-17.556561 0.749484-8.992785 8.563777-15.736094 17.556561-15.094118 8.992785 0.749484 15.737117 8.563777 14.987634 17.556562-0.641976 8.563777-7.814293 15.094117-16.271586 15.094117h-1.284976z m-373.181628-15.523125c-0.749484-8.992785 5.994849-16.914586 15.094118-17.556562 8.992785-0.641976 16.914586 6.102357 17.556561 15.094118 0.749484 8.992785-6.102357 16.914586-15.094117 17.556561h-1.284976c-8.456269 0.001024-15.628586-6.529317-16.271586-15.094117z m353.056138-66.799303c-2.140944-8.777769 3.318412-17.663046 12.097205-19.697505 8.777769-2.140944 17.663046 3.318412 19.805014 12.097205 2.140944 8.777769-3.318412 17.663046-12.097205 19.697506-1.284976 0.3215-2.568928 0.427984-3.853904 0.427984-7.387333-0.001024-14.130641-5.032396-15.95111-12.52519z m-335.070568 11.668198c-8.777769-2.140944-14.130641-11.026221-12.097205-19.80399 2.140944-8.777769 11.026221-14.238149 19.805014-12.097205 8.777769 2.140944 14.130641 11.026221 12.097205 19.805013-1.819444 7.493817-8.563777 12.525189-15.843602 12.52519-1.286-0.001024-2.569952-0.107508-3.961412-0.429008z m309.913706-71.189723c-4.81738-7.600301-2.676436-17.770554 4.923864-22.587934 7.600301-4.924888 17.770554-2.676436 22.587934 4.924888 4.81738 7.600301 2.676436 17.770554-4.923864 22.587934a16.402643 16.402643 0 0 1-8.777769 2.568929c-5.46038 0.107508-10.705745-2.568928-13.810165-7.493817z m-287.43328 4.603388c-7.600301-4.924888-9.848753-14.987633-4.924888-22.587934 4.924888-7.600301 14.987633-9.848753 22.587934-4.924888 7.600301 4.924888 9.848753 14.987633 4.923864 22.587934-3.10442 4.81738-8.457293 7.493817-13.809141 7.493817-2.996912 0.001024-5.994849-0.855968-8.777769-2.568929z m243.862864-51.384709c-7.279825-5.352872-8.885277-15.629609-3.532405-22.909434 5.352872-7.279825 15.629609-8.885277 22.909434-3.532404 7.279825 5.352872 8.885277 15.629609 3.532405 22.909434-3.211928 4.389396-8.135793 6.636825-13.167166 6.636825-3.42592 0-6.851841-0.963476-9.742268-3.104421z m-200.399956-3.853904c-5.352872-7.279825-3.746396-17.556562 3.532405-22.909434 7.279825-5.352872 17.556562-3.746396 22.909434 3.532404 5.352872 7.279825 3.746396 17.556562-3.532405 22.909434-2.890428 2.140944-6.316349 3.211928-9.63476 3.211929-5.13888 0-10.062745-2.354936-13.274674-6.744333z m143.020398-22.480426c-8.777769-1.926952-14.452141-10.704721-12.417681-19.483514 1.926952-8.885277 10.704721-14.452141 19.483514-12.417681 8.777769 1.926952 14.452141 10.704721 12.417681 19.483514-1.71296 7.600301-8.457293 12.846689-15.95111 12.846689-1.177468-0.001024-2.354936-0.107508-3.532404-0.429008z m-82.21492-12.525189c-1.926952-8.777769 3.639912-17.556562 12.525189-19.483514a16.318684 16.318684 0 0 1 19.483514 12.525189 16.318684 16.318684 0 0 1-12.525189 19.483514c-1.177468 0.213992-2.354936 0.3215-3.532404 0.3215-7.494841 0-14.345657-5.246388-15.95111-12.846689z" fill="#333333" p-id="17097"></path><path d="M512.268258 179.17686m-16.379094 0a16.379094 16.379094 0 1 0 32.758187 0 16.379094 16.379094 0 1 0-32.758187 0Z" fill="#FFFFFF" p-id="17098"></path></svg>